<svg width="80" height="73" viewBox="0 0 80 73" fill="none" xmlns="http://www.w3.org/2000/svg">
<path d="M37.9875 23.3273C39.2314 22.6031 40.7686 22.6031 42.0125 23.3273L50.2101 28.0997C51.4406 28.8161 52.1975 30.1327 52.1975 31.5566V41.1594C52.1975 42.5833 51.4406 43.8998 50.2101 44.6162L42.0125 49.3887C40.7686 50.1129 39.2314 50.1129 37.9875 49.3887L29.79 44.6162C28.5594 43.8998 27.8025 42.5833 27.8025 41.1594V31.5566C27.8025 30.1327 28.5594 28.8161 29.79 28.0997L37.9875 23.3273Z" fill="#004298"/>
<path d="M50.9452 1.17164C52.1892 0.447441 53.7263 0.447442 54.9702 1.17164L63.1678 5.94409C64.3983 6.6605 65.1553 7.97704 65.1553 9.40094V19.0037C65.1553 20.4276 64.3983 21.7442 63.1678 22.4606L54.9702 27.233C53.7263 27.9572 52.1892 27.9572 50.9452 27.233L42.7477 22.4606C41.5171 21.7442 40.7602 20.4276 40.7602 19.0037V9.40094C40.7602 7.97705 41.5171 6.6605 42.7477 5.94409L50.9452 1.17164Z" fill="white"/>
<path d="M50.9452 45.767C52.1892 45.0428 53.7263 45.0428 54.9702 45.767L63.1678 50.5394C64.3983 51.2558 65.1553 52.5724 65.1553 53.9963V63.5991C65.1553 65.023 64.3983 66.3395 63.1678 67.0559L54.9702 71.8284C53.7263 72.5526 52.1892 72.5526 50.9452 71.8284L42.7477 67.0559C41.5171 66.3395 40.7602 65.023 40.7602 63.5991V53.9963C40.7602 52.5724 41.5171 51.2558 42.7477 50.5394L50.9452 45.767Z" fill="white"/>
<path d="M63.903 23.3273C65.1469 22.6031 66.6841 22.6031 67.928 23.3273L76.1256 28.0997C77.3561 28.8161 78.113 30.1327 78.113 31.5566V41.1594C78.113 42.5833 77.3561 43.8998 76.1256 44.6162L67.928 49.3887C66.6841 50.1129 65.1469 50.1129 63.903 49.3887L55.7054 44.6162C54.4749 43.8998 53.718 42.5833 53.718 41.1594V31.5566C53.718 30.1327 54.4749 28.8161 55.7055 28.0997L63.903 23.3273Z" fill="white"/>
<path d="M25.0298 1.17164C26.2737 0.447441 27.8108 0.447442 29.0548 1.17164L37.2523 5.94409C38.4829 6.6605 39.2398 7.97704 39.2398 9.40094V19.0037C39.2398 20.4276 38.4829 21.7442 37.2523 22.4606L29.0548 27.233C27.8108 27.9572 26.2737 27.9572 25.0298 27.233L16.8322 22.4606C15.6017 21.7442 14.8447 20.4276 14.8447 19.0037V9.40094C14.8447 7.97705 15.6017 6.6605 16.8322 5.94409L25.0298 1.17164Z" fill="white"/>
<path d="M25.0298 45.767C26.2737 45.0428 27.8108 45.0428 29.0548 45.767L37.2523 50.5394C38.4829 51.2558 39.2398 52.5724 39.2398 53.9963V63.5991C39.2398 65.023 38.4829 66.3395 37.2523 67.0559L29.0548 71.8284C27.8108 72.5526 26.2737 72.5526 25.0298 71.8284L16.8322 67.0559C15.6017 66.3395 14.8447 65.023 14.8447 63.5991V53.9963C14.8447 52.5724 15.6017 51.2558 16.8322 50.5394L25.0298 45.767Z" fill="white"/>
<path d="M12.072 23.3273C13.3159 22.6031 14.8531 22.6031 16.097 23.3273L24.2946 28.0997C25.5251 28.8161 26.2821 30.1327 26.2821 31.5566V41.1594C26.2821 42.5833 25.5251 43.8998 24.2946 44.6162L16.097 49.3887C14.8531 50.1129 13.3159 50.1129 12.072 49.3887L3.87445 44.6162C2.64391 43.8998 1.88697 42.5833 1.88697 41.1594V31.5566C1.88697 30.1327 2.64391 28.8161 3.87446 28.0997L12.072 23.3273Z" fill="white"/>
<path fill-rule="evenodd" clip-rule="evenodd" d="M21.9719 18.1033C21.9719 17.9046 22.1332 17.7435 22.3322 17.7435H31.9402C32.1392 17.7435 32.3005 17.9046 32.3005 18.1033C32.3005 18.302 32.1392 18.4631 31.9402 18.4631H22.3322C22.1332 18.4631 21.9719 18.302 21.9719 18.1033Z" fill="#004298"/>
<path fill-rule="evenodd" clip-rule="evenodd" d="M23.2347 10.3632C22.8126 10.7847 22.8126 11.4631 22.8126 12.82V15.2186C22.8126 16.1232 22.8126 16.5755 23.094 16.8565C23.3754 17.1375 23.8283 17.1375 24.7342 17.1375H29.5382C30.444 17.1375 30.897 17.1375 31.1784 16.8565C31.4598 16.5755 31.4598 16.1232 31.4598 15.2186V12.82C31.4598 11.4631 31.4598 10.7847 31.0377 10.3632C30.6156 9.94165 29.9362 9.94165 28.5774 9.94165H25.695C24.3362 9.94165 23.6568 9.94165 23.2347 10.3632ZM25.3347 15.6983C25.3347 15.4996 25.496 15.3385 25.695 15.3385H28.5774C28.7764 15.3385 28.9377 15.4996 28.9377 15.6983C28.9377 15.897 28.7764 16.0581 28.5774 16.0581H25.695C25.496 16.0581 25.3347 15.897 25.3347 15.6983Z" fill="#004298"/>
<path d="M12.6672 34.9288C12.6921 34.9036 12.7366 34.8725 12.8787 34.8533C13.0302 34.8327 13.2358 34.832 13.5539 34.832H14.4273C14.7454 34.832 14.951 34.8327 15.1025 34.8533C15.2446 34.8725 15.2891 34.9036 15.314 34.9288C15.339 34.9539 15.3698 34.9988 15.3889 35.1421C15.4093 35.2948 15.41 35.5022 15.41 35.8229V36.7037C15.41 37.0244 15.4093 37.2317 15.3889 37.3845C15.3698 37.5278 15.339 37.5727 15.314 37.5978C15.2891 37.6229 15.2446 37.654 15.1025 37.6733C14.951 37.6938 14.7454 37.6945 14.4273 37.6945H13.5539C13.2358 37.6945 13.0302 37.6938 12.8787 37.6733C12.7366 37.654 12.6921 37.6229 12.6672 37.5978C12.6422 37.5727 12.6114 37.5278 12.5923 37.3845C12.5719 37.2317 12.5712 37.0244 12.5712 36.7037V35.8229C12.5712 35.5022 12.5719 35.2948 12.5923 35.1421C12.6114 34.9988 12.6422 34.9539 12.6672 34.9288Z" fill="#004298"/>
<path fill-rule="evenodd" clip-rule="evenodd" d="M13.9906 31.5292C14.1715 31.5292 14.3182 31.677 14.3182 31.8595V33.1808C14.5579 33.1813 14.7755 33.183 14.9733 33.1885L14.9733 33.1806V31.8595C14.9733 31.677 15.1199 31.5292 15.3008 31.5292C15.4817 31.5292 15.6283 31.677 15.6283 31.8595V33.1806C15.6283 33.1979 15.627 33.2149 15.6245 33.2314C16.0639 33.2858 16.3685 33.3986 16.6 33.6321C16.8316 33.8655 16.9434 34.1726 16.9973 34.6157C17.0138 34.6132 17.0306 34.6119 17.0477 34.6119H18.3579C18.5388 34.6119 18.6854 34.7597 18.6854 34.9421C18.6854 35.1246 18.5388 35.2724 18.3579 35.2724H17.0477L17.0399 35.2723C17.0453 35.4719 17.0472 35.6912 17.0477 35.933H18.3579C18.5388 35.933 18.6854 36.0809 18.6854 36.2633C18.6854 36.4457 18.5388 36.5936 18.3579 36.5936L17.0475 36.5936C17.047 36.8354 17.0453 37.0547 17.0399 37.2542L17.0477 37.2542H18.3579C18.5388 37.2542 18.6854 37.402 18.6854 37.5844C18.6854 37.7668 18.5388 37.9147 18.3579 37.9147H17.0477C17.0306 37.9147 17.0138 37.9134 16.9973 37.9108C16.9434 38.354 16.8316 38.661 16.6 38.8945C16.3685 39.128 16.0639 39.2407 15.6245 39.2952C15.627 39.3117 15.6283 39.3287 15.6283 39.346V40.6671C15.6283 40.8495 15.4817 40.9974 15.3008 40.9974C15.1199 40.9974 14.9733 40.8495 14.9733 40.6671V39.346L14.9733 39.3381C14.7755 39.3436 14.5579 39.3455 14.3182 39.346V40.6671C14.3182 40.8495 14.1715 40.9974 13.9906 40.9974C13.8097 40.9974 13.6631 40.8495 13.6631 40.6671L13.6631 39.3457C13.4233 39.3452 13.2058 39.3436 13.0079 39.3381L13.008 39.346V40.6671C13.008 40.8495 12.8613 40.9974 12.6804 40.9974C12.4995 40.9974 12.3529 40.8495 12.3529 40.6671V39.346C12.3529 39.3287 12.3542 39.3117 12.3567 39.2952C11.9173 39.2407 11.6128 39.128 11.3812 38.8945C11.1497 38.661 11.0379 38.354 10.9839 37.9108C10.9675 37.9134 10.9506 37.9147 10.9335 37.9147H9.62332C9.44242 37.9147 9.29578 37.7668 9.29578 37.5844C9.29578 37.402 9.44242 37.2542 9.62332 37.2542H10.9335L10.9413 37.2542C10.9359 37.0547 10.934 36.8354 10.9335 36.5936H9.62332C9.44242 36.5936 9.29578 36.4457 9.29578 36.2633C9.29578 36.0809 9.44242 35.933 9.62332 35.933L10.9337 35.933C10.9342 35.6912 10.9359 35.4719 10.9413 35.2723L10.9335 35.2724H9.62332C9.44242 35.2724 9.29578 35.1246 9.29578 34.9421C9.29578 34.7597 9.44242 34.6119 9.62332 34.6119H10.9335C10.9506 34.6119 10.9675 34.6132 10.9839 34.6157C11.0379 34.1726 11.1497 33.8655 11.3812 33.6321C11.6128 33.3986 11.9173 33.2858 12.3567 33.2314C12.3542 33.2149 12.3529 33.1979 12.3529 33.1806V31.8595C12.3529 31.677 12.4995 31.5292 12.6804 31.5292C12.8613 31.5292 13.008 31.677 13.008 31.8595V33.1806L13.0079 33.1885C13.2058 33.183 13.4233 33.1811 13.6631 33.1806V31.8595C13.6631 31.677 13.8097 31.5292 13.9906 31.5292ZM13.5323 34.1715C13.242 34.1715 12.9918 34.1714 12.7914 34.1986C12.5767 34.2277 12.3709 34.2934 12.204 34.4617C12.037 34.63 11.9719 34.8376 11.9431 35.0541C11.9161 35.2561 11.9161 35.5084 11.9162 35.8012V36.7254C11.9161 37.0182 11.9161 37.2705 11.9431 37.4725C11.9719 37.689 12.037 37.8966 12.204 38.0649C12.3709 38.2332 12.5767 38.2989 12.7914 38.328C12.9918 38.3551 13.242 38.3551 13.5323 38.3551H14.4489C14.7393 38.3551 14.9895 38.3551 15.1898 38.328C15.4045 38.2989 15.6103 38.2332 15.7773 38.0649C15.9442 37.8966 16.0093 37.689 16.0382 37.4725C16.0651 37.2705 16.0651 37.0182 16.0651 36.7254V35.8012C16.0651 35.5084 16.0651 35.2561 16.0382 35.0541C16.0093 34.8376 15.9442 34.63 15.7773 34.4617C15.6103 34.2934 15.4045 34.2277 15.1898 34.1986C14.9895 34.1714 14.7393 34.1715 14.4489 34.1715H13.5323Z" fill="#004298"/>
<path d="M50.9859 61.07C49.658 61.07 48.9941 61.07 48.5816 60.6541C48.3143 60.3846 48.2202 60.0086 48.187 59.4131H57.5407C57.5076 60.0086 57.4135 60.3846 57.1462 60.6541C56.7337 61.07 56.0697 61.07 54.7418 61.07H53.216V62.9637H54.7418C54.9363 62.9637 55.0939 63.1227 55.0939 63.3187C55.0939 63.5148 54.9363 63.6738 54.7418 63.6738H50.9859C50.7915 63.6738 50.6338 63.5148 50.6338 63.3187C50.6338 63.1227 50.7915 62.9637 50.9859 62.9637H52.5118V61.07H50.9859Z" fill="#004298"/>
<path d="M51.9249 53.9689H53.8028C55.5734 53.9689 56.4586 53.9689 57.0087 54.5235C57.5587 55.0781 57.5587 55.9708 57.5587 57.7562V58.2296C57.5587 58.4907 57.5587 58.7264 57.5557 58.9397H48.1721C48.169 58.7264 48.169 58.4907 48.169 58.2296V57.7562C48.169 55.9708 48.169 55.0781 48.7191 54.5235C49.2691 53.9689 50.1544 53.9689 51.9249 53.9689Z" fill="#004298"/>
<path fill-rule="evenodd" clip-rule="evenodd" d="M48.4441 10.219C48.169 10.4963 48.169 10.9426 48.169 11.8353C48.169 12.728 48.169 13.1743 48.4441 13.4516C48.7191 13.7289 49.1617 13.7289 50.047 13.7289H55.6808C56.566 13.7289 57.0087 13.7289 57.2837 13.4516C57.5587 13.1743 57.5587 12.728 57.5587 11.8353C57.5587 10.9426 57.5587 10.4963 57.2837 10.219C57.0087 9.94165 56.566 9.94165 55.6808 9.94165H50.047C49.1617 9.94165 48.7191 9.94165 48.4441 10.219ZM51.4554 12.6638C51.261 12.6638 51.1033 12.5048 51.1033 12.3087V11.3619C51.1033 11.1658 51.261 11.0068 51.4554 11.0068C51.6499 11.0068 51.8075 11.1658 51.8075 11.3619V12.3087C51.8075 12.5048 51.6499 12.6638 51.4554 12.6638ZM53.5681 11.4802C53.3736 11.4802 53.216 11.6392 53.216 11.8353C53.216 12.0314 53.3736 12.1904 53.5681 12.1904H55.6808C55.8752 12.1904 56.0329 12.0314 56.0329 11.8353C56.0329 11.6392 55.8752 11.4802 55.6808 11.4802H53.5681ZM50.047 12.6638C49.8525 12.6638 49.6949 12.5048 49.6949 12.3087L49.6949 11.3619C49.6949 11.1658 49.8525 11.0068 50.047 11.0068C50.2414 11.0068 50.3991 11.1658 50.3991 11.3619V12.3087C50.3991 12.5048 50.2414 12.6638 50.047 12.6638Z" fill="#004298"/>
<path fill-rule="evenodd" clip-rule="evenodd" d="M48.4441 14.9531C48.169 15.2304 48.169 15.6767 48.169 16.5694C48.169 17.4621 48.169 17.9084 48.4441 18.1857C48.7191 18.4631 49.1617 18.4631 50.047 18.4631H55.6808C56.566 18.4631 57.0087 18.4631 57.2837 18.1857C57.5587 17.9084 57.5587 17.4621 57.5587 16.5694C57.5587 15.6767 57.5587 15.2304 57.2837 14.9531C57.0087 14.6758 56.566 14.6758 55.6808 14.6758H50.047C49.1617 14.6758 48.7191 14.6758 48.4441 14.9531ZM53.216 16.5694C53.216 16.3733 53.3736 16.2144 53.5681 16.2144H55.6808C55.8752 16.2144 56.0329 16.3733 56.0329 16.5694C56.0329 16.7655 55.8752 16.9245 55.6808 16.9245H53.5681C53.3736 16.9245 53.216 16.7655 53.216 16.5694ZM49.6949 17.0428C49.6949 17.2389 49.8525 17.3979 50.047 17.3979C50.2414 17.3979 50.3991 17.2389 50.3991 17.0428V16.096C50.3991 15.8999 50.2414 15.7409 50.047 15.7409C49.8525 15.7409 49.6949 15.8999 49.6949 16.096L49.6949 17.0428ZM51.4554 17.3979C51.261 17.3979 51.1033 17.2389 51.1033 17.0428V16.096C51.1033 15.8999 51.261 15.7409 51.4554 15.7409C51.6499 15.7409 51.8075 15.8999 51.8075 16.096V17.0428C51.8075 17.2389 51.6499 17.3979 51.4554 17.3979Z" fill="#004298"/>
<path fill-rule="evenodd" clip-rule="evenodd" d="M27.1604 53.9689H27.112C26.3231 53.9689 25.6983 53.9689 25.2093 54.0363C24.706 54.1057 24.2987 54.252 23.9775 54.5816C23.6563 54.9111 23.5137 55.329 23.446 55.8453C23.3803 56.347 23.3803 56.9881 23.3803 57.7974V59.6086C23.3803 60.4179 23.3803 61.0589 23.446 61.5606C23.5137 62.077 23.6563 62.4949 23.9775 62.8244C24.2987 63.154 24.706 63.3002 25.2093 63.3697C25.6983 63.4371 26.3231 63.4371 27.1119 63.4371H27.1604C27.9492 63.4371 28.5741 63.4371 29.0631 63.3697C29.5663 63.3002 29.9736 63.154 30.2949 62.8244C30.6161 62.4949 30.7587 62.077 30.8263 61.5606C30.8921 61.059 30.8921 60.4179 30.892 59.6086V57.7974C30.8921 56.9881 30.8921 56.347 30.8263 55.8453C30.7587 55.329 30.6161 54.9111 30.2949 54.5816C29.9736 54.252 29.5663 54.1057 29.0631 54.0363C28.5741 53.9689 27.9492 53.9689 27.1604 53.9689ZM25.5265 61.7857C25.5265 61.6033 25.6707 61.4554 25.8485 61.4554H28.4239C28.6017 61.4554 28.7458 61.6033 28.7458 61.7857C28.7458 61.9681 28.6017 62.116 28.4239 62.116H25.8485C25.6707 62.116 25.5265 61.9681 25.5265 61.7857Z" fill="#004298"/>
<path fill-rule="evenodd" clip-rule="evenodd" d="M61.6768 39.5906C62.2268 40.1453 63.1121 40.1453 64.8826 40.1453L66.7606 40.1453C68.5311 40.1453 69.4164 40.1453 69.9664 39.5906C70.5164 39.036 70.5164 38.1433 70.5164 36.358C70.5164 34.5726 70.5164 33.6799 69.9664 33.1253C69.4164 32.5707 68.5311 32.5707 66.7606 32.5707H64.8826C63.1121 32.5707 62.2268 32.5707 61.6768 33.1253C61.1268 33.68 61.1268 34.5726 61.1268 36.358C61.1268 38.1433 61.1268 39.036 61.6768 39.5906ZM64.4132 38.37C64.2187 38.37 64.061 38.5289 64.061 38.725C64.061 38.9211 64.2187 39.0801 64.4132 39.0801H67.2301C67.4245 39.0801 67.5822 38.9211 67.5822 38.725C67.5822 38.5289 67.4245 38.37 67.2301 38.37H64.4132Z" fill="#004298"/>
<path fill-rule="evenodd" clip-rule="evenodd" d="M38.5006 32.8754C38.5006 31.9947 39.2087 31.2806 40.0822 31.2806C40.9557 31.2806 41.6638 31.9947 41.6638 32.8754C41.6638 33.7562 40.9557 34.4702 40.0822 34.4702C39.2087 34.4702 38.5006 33.7562 38.5006 32.8754Z" fill="white"/>
<path d="M37.91 37.2681L36.659 36.8476C36.2991 36.7266 36.0564 36.387 36.0564 36.0045C36.0564 35.4387 36.5737 35.017 37.1223 35.1355L38.2136 35.3714C38.2743 35.3845 38.3047 35.391 38.3348 35.3973C39.4875 35.6377 40.6769 35.6377 41.8296 35.3973C41.8597 35.391 41.89 35.3845 41.9507 35.3714L43.0421 35.1355C43.5907 35.017 44.108 35.4387 44.108 36.0045C44.108 36.387 43.8653 36.7266 43.5054 36.8476L42.2544 37.2681C42.1032 37.3189 42.0276 37.3443 41.9707 37.3797C41.7771 37.5002 41.6722 37.7244 41.703 37.9517C41.7121 38.0185 41.7407 38.0935 41.7979 38.2434L42.5149 40.1234C42.7284 40.683 42.3187 41.2844 41.7241 41.2844C41.4201 41.2844 41.1393 41.1202 40.9885 40.854L40.0822 39.2547L39.1759 40.854C39.0251 41.1202 38.7443 41.2844 38.4403 41.2844C37.8457 41.2844 37.436 40.683 37.6495 40.1234L38.3665 38.2434C38.4237 38.0935 38.4523 38.0185 38.4614 37.9517C38.4922 37.7244 38.3872 37.5002 38.1936 37.3797C38.1368 37.3443 38.0612 37.3189 37.91 37.2681Z" fill="white"/>
</svg>
